<?xml version="1.0" encoding="UTF-8"?>
<svg id="Layer_1" data-name="Layer 1" xmlns="http://www.w3.org/2000/svg" viewBox="0 0 1000 1031.17">
  <defs>
    <style>
      .cls-1 {
        fill: none;
      }

      .cls-2 {
        fill: #fff;
      }
    </style>
  </defs>
  <path class="cls-2" d="M61.23,386.9c-15.5,0-23.26-9.12-23.26-27.37v-27.73c0-18.25,7.57-27.37,22.72-27.37,11.57,0,19.26,6.38,23.08,19.14l20.57-7.87c-2.74-10.13-7.9-17.92-15.48-23.35-7.57-5.43-17.2-8.14-28.89-8.14-14.43,0-25.61,4.09-33.54,12.26-7.93,8.17-11.9,19.89-11.9,35.15v28.09c0,15.27,4,26.99,11.99,35.16,7.99,8.17,19.32,12.26,33.99,12.26,11.93,0,21.74-2.71,29.43-8.14,7.69-5.42,12.91-13.21,15.65-23.34l-20.57-7.69c-3.94,12.64-11.87,18.96-23.8,18.96Z"/>
  <polygon class="cls-2" points="125.26 407.12 207.56 407.12 207.56 386.9 148.69 386.9 148.69 356.85 197 356.85 197 336.63 148.69 336.63 148.69 308.01 207.56 308.01 207.56 287.79 125.26 287.79 125.26 407.12"/>
  <polygon class="cls-2" points="293.41 363.29 293.05 363.29 249.17 287.79 227.21 287.79 227.21 407.12 249.76 407.12 249.76 328.94 250.11 328.94 295.56 407.12 315.95 407.12 315.95 287.79 293.41 287.79 293.41 363.29"/>
  <polygon class="cls-2" points="335.33 308.01 368.25 308.01 368.25 407.12 391.69 407.12 391.69 308.01 424.61 308.01 424.61 287.79 335.33 287.79 335.33 308.01"/>
  <polygon class="cls-2" points="444.27 407.12 526.56 407.12 526.56 386.9 467.7 386.9 467.7 356.85 516.01 356.85 516.01 336.63 467.7 336.63 467.7 308.01 526.56 308.01 526.56 287.79 444.27 287.79 444.27 407.12"/>
  <path class="cls-2" d="M633.35,324.82c0-12.52-3.55-21.83-10.64-27.91-7.1-6.08-17.92-9.12-32.47-9.12h-44.01v119.33h23.44v-45.44h17.94l23.21,45.44h26.48l-26.3-48.13c14.91-4.77,22.36-16.16,22.36-34.17ZM604.73,337.44c-3.22,2.68-8.17,4.03-14.85,4.03h-20.21v-33.45h20.21c13.12,0,19.68,5.61,19.68,16.82,0,5.72-1.61,9.93-4.83,12.61Z"/>
  <polygon class="cls-2" points="680.59 287.79 655.95 287.79 655.95 407.12 739.99 407.12 739.99 386.9 680.59 386.9 680.59 287.79"/>
  <polygon class="cls-2" points="863.22 363.29 862.88 363.29 820.67 287.79 799.55 287.79 799.55 407.12 821.23 407.12 821.23 328.94 821.58 328.94 865.28 407.12 884.08 407.12 884.08 287.79 863.22 287.79 863.22 363.29"/>
  <polygon class="cls-2" points="985.46 308.01 985.46 287.79 901.54 287.79 901.54 407.12 985.46 407.12 985.46 386.9 925.44 386.9 925.44 356.85 974.7 356.85 974.7 336.63 925.44 336.63 925.44 308.01 985.46 308.01"/>
  <rect class="cls-2" x="758.68" y="121.13" width="23.44" height="119.33"/>
  <rect class="cls-2" x="758.68" y="621.1" width="23.44" height="119.33"/>
  <polygon class="cls-2" points="680.91 39.95 770.37 39.95 859.82 39.95 859.82 269.34 884.79 269.34 884.79 14.99 770.37 14.99 655.95 14.99 655.95 269.34 680.91 269.34 680.91 39.95"/>
  <polygon class="cls-2" points="859.82 991.21 768.56 991.21 767.58 991.21 680.91 991.21 680.91 856.85 655.95 854.12 655.95 1016.18 884.79 1016.18 884.79 853.62 859.82 856.35 859.82 991.21"/>
  <polygon class="cls-2" points="655.95 814.45 680.91 813.58 680.91 593.87 655.95 593.87 655.95 814.45"/>
  <polygon class="cls-2" points="859.82 813.74 884.79 814.62 884.79 593.87 859.82 593.87 859.82 813.74"/>
  <path class="cls-2" d="M909.68,822.92l-56.87-2.5v.74l-64.98-2.27s-2.2.51-2.2-3.24c0,0-1.71-36.22-3.17-41.25,0,0-.26-2.02-3.45-3.27l-4.03-1.46c3.38-.81,9.13-.81,9.13-.81,0,0,10.59-.76,10.59-1.27s-6.4-.74-6.4-.74l-14.42-.25c-1.14-3.43-2.97-8.53-3.94-8.53s-2.87,5.24-4.01,8.67c-3.08-.14-14.92-.63-19.58.05,0,0-2.94,0,0,.49,2.94.51,6.61,1.51,10.54,1.51,0,0,5.7.21,8.02.9l-4.03,1.46c-3.2,1.25-3.45,3.27-3.45,3.27-1.46,5.03-3.18,41.25-3.18,41.25,0,3.75-2.2,3.24-2.2,3.24l-64.98,2.27v-.74l-56.9,2.5c-7.35,2.78-7.09,20.37-7.09,20.37h2.43c2.46-.25,5.4,0,5.4,0l120.14,13.07c3.43.25,4.66,4.03,4.66,4.03l1.46,7.3c8.6,37.73,10.57,54.83,10.57,54.83l.02.51-41.23,5.03c-3.17.25-3.92.76-3.92.76-2.71,1.74-1.97,12.31-1.97,12.31l47.33,2.27h.51c.23,4.8,1.46,17.85,1.46,17.85,0,0,1.2-13.05,1.46-17.85h.09l47.32-2.27s.74-10.57-1.97-12.31c0,0-.74-.51-3.92-.76l-40.81-4.96.02-.58s1.95-17.1,10.55-54.83l1.46-7.3s1.25-3.78,4.66-4.03l120.17-13.07s2.94-.25,5.38,0h2.46s.25-17.59-7.11-20.37ZM760.5,867.35c-1.76,0-4.26-15.94-4.26-15.94v-4.64c0-1.53,1.25-.25,1.25-.25.74.51,3.01,3.59,3.01,3.59v.16s.23,13.47.23,15.53-.23,1.55-.23,1.55ZM760.55,832.4c-.12,3.71.02,8.3.02,8.3-.26,2.53-.97,2.27-.97,2.27-1.58,0-2.32-1.71-2.66-3.15-.25-1.02-.28-1.88-.28-1.88v-16.11c0,1.25,2.46,3.52,2.46,3.52,1.69,1.25,1.69,3.52,1.69,3.52,0,1.51-.21,2.11-.25,3.52ZM779.34,832.4c-.05-1.41-.25-2.02-.25-3.52,0,0,0-2.27,1.71-3.52,0,0,2.46-2.27,2.46-3.52v16.11s-.05.86-.28,1.88c-.37,1.44-1.09,3.15-2.67,3.15,0,0-.74.25-1-2.27,0,0,.14-4.59.02-8.3ZM783.66,851.4s-2.5,15.94-4.27,15.94c0,0-.23.51-.23-1.55s.23-15.53.23-15.53v-.16s2.27-3.08,3.01-3.59c0,0,1.25-1.27,1.25.25v4.64ZM784.84,816.43l-2.41.37s-2.09.7-4.52-1.09c-2.36-1.71-5.86-1.83-7.32-1.78-.32,0-.56.02-.65.02h-.02c-.09,0-.3-.02-.63-.02-1.46-.05-4.98.07-7.35,1.78-2.43,1.78-4.52,1.09-4.52,1.09l-2.43-.37s-.69-4.96.35-7.42c1.02-2.43,2.71-8.95,13.97-9.2h1.25c11.24.25,12.91,6.77,13.95,9.2,1.04,2.46.32,7.42.32,7.42Z"/>
  <path class="cls-1" d="M783.66,846.77v4.64s-2.5,15.94-4.27,15.94c0,0-.23.51-.23-1.55s.23-15.53.23-15.53v-.16s2.27-3.08,3.01-3.59c0,0,1.25-1.27,1.25.25Z"/>
  <path class="cls-1" d="M760.73,865.79c0,2.06-.23,1.55-.23,1.55-1.76,0-4.26-15.94-4.26-15.94v-4.64c0-1.53,1.25-.25,1.25-.25.74.51,3.01,3.59,3.01,3.59v.16s.23,13.47.23,15.53Z"/>
  <path class="cls-1" d="M783.26,821.83v16.11s-.05.86-.28,1.88c-.37,1.44-1.09,3.15-2.67,3.15,0,0-.74.25-1-2.27,0,0,.14-4.59.02-8.3-.05-1.41-.25-2.02-.25-3.52,0,0,0-2.27,1.71-3.52,0,0,2.46-2.27,2.46-3.52Z"/>
  <path class="cls-1" d="M760.57,840.69c-.26,2.53-.97,2.27-.97,2.27-1.58,0-2.32-1.71-2.66-3.15-.25-1.02-.28-1.88-.28-1.88v-16.11c0,1.25,2.46,3.52,2.46,3.52,1.69,1.25,1.69,3.52,1.69,3.52,0,1.51-.21,2.11-.25,3.52-.12,3.71.02,8.3.02,8.3Z"/>
  <path class="cls-1" d="M784.84,816.43l-2.41.37s-2.09.7-4.52-1.09c-2.36-1.71-5.86-1.83-7.32-1.78-.32,0-.56.02-.65.02h-.02c-.09,0-.3-.02-.63-.02-1.46-.05-4.98.07-7.35,1.78-2.43,1.78-4.52,1.09-4.52,1.09l-2.43-.37s-.69-4.96.35-7.42c1.02-2.43,2.71-8.95,13.97-9.2h1.25c11.24.25,12.91,6.77,13.95,9.2,1.04,2.46.32,7.42.32,7.42Z"/>
  <rect class="cls-2" x="758.68" y="287.79" width="23.44" height="119.33"/>
  <path class="cls-2" d="M376.43,454.66l-38.7,118.91h23.31l6.37-20.68h45.28l7.09,20.68h22.97l-40.47-118.91h-25.86ZM373.57,532.92l16.05-52.59h.36l15.87,52.59h-32.28Z"/>
  <polygon class="cls-2" points="480.28 542.78 479.73 542.72 453.12 454.66 428.74 454.66 465.43 573.56 491.68 573.56 528.21 454.66 506.84 454.66 480.28 542.78"/>
  <rect class="cls-2" x="539.85" y="454.66" width="23.36" height="118.91"/>
  <path class="cls-2" d="M656.91,573.56h22.97l-40.47-118.91h-25.86l-38.7,118.91h23.31l6.37-20.68h45.28l7.09,20.68ZM610.69,532.92l16.05-52.59h.36l15.87,52.59h-32.28Z"/>
  <polygon class="cls-2" points="714.68 573.56 714.68 474.8 747.49 474.8 747.49 454.66 658.51 454.66 658.51 474.8 691.32 474.8 691.32 573.56 714.68 573.56"/>
  <rect class="cls-2" x="758.72" y="454.66" width="23.36" height="118.91"/>
  <path class="cls-2" d="M886.31,498.33c0-15.21-4.01-26.89-12.04-35.03-8.02-8.14-19.59-12.21-34.68-12.21s-26.51,4.07-34.59,12.21c-8.09,8.14-12.13,19.82-12.13,35.03v27.99c0,15.21,4.04,26.89,12.13,35.03,8.08,8.14,19.62,12.21,34.59,12.21s26.66-4.07,34.68-12.21c8.02-8.14,12.04-19.82,12.04-35.03v-27.99ZM862.95,526.14c0,18.18-7.79,27.28-23.36,27.28s-23.36-9.09-23.36-27.28v-27.63c0-18.18,7.78-27.28,23.36-27.28s23.36,9.09,23.36,27.28v27.63Z"/>
  <polygon class="cls-2" points="962.99 454.66 962.99 529.89 962.63 529.89 918.89 454.66 897.01 454.66 897.01 573.56 919.48 573.56 919.48 495.66 919.83 495.66 965.13 573.56 985.46 573.56 985.46 454.66 962.99 454.66"/>
</svg>